<svg width="50" height="55" viewBox="0 0 27 16" xmlns="http://www.w3.org/2000/svg">
  <path fill-rule="evenodd" clip-rule="evenodd" fill="currentcolor" d="M3.2907 12.4C3.21318 12.4 3.14341 12.372 3.0814 12.316C3.02713 12.252 3 12.18 3 12.1V5C3 5 3 4 4 4H4.54651C4.67829 4 4.77519 4.036 4.83721 4.108C4.89922 4.172 4.93798 4.224 4.95349 4.264L7 8.044L9.04651 4.264C9.06977 4.224 9.10853 4.172 9.16279 4.108C9.22481 4.036 9.32171 4 9.45349 4H11H13.8C14.488 4 15.052 4.096 15.492 4.288C15.932 4.48 16.256 4.756 16.464 5.116C16.68 5.468 16.788 5.888 16.788 6.376C16.788 6.664 16.732 6.92 16.62 7.144C16.516 7.36 16.384 7.54 16.224 7.684C16.072 7.828 15.928 7.932 15.792 7.996C16.096 8.14 16.364 8.376 16.596 8.704C16.836 9.032 16.956 9.416 16.956 9.856C16.956 10.384 16.836 10.84 16.596 11.224C16.364 11.6 16.02 11.892 15.564 12.1C15.116 12.3 14.564 12.4 13.908 12.4H12V10.84H13.668C14.012 10.84 14.272 10.74 14.448 10.54C14.624 10.34 14.712 10.112 14.712 9.856C14.712 9.576 14.62 9.34 14.436 9.148C14.26 8.956 14.004 8.86 13.668 8.86H12V7.336H13.56C13.888 7.336 14.132 7.252 14.292 7.084C14.46 6.908 14.544 6.692 14.544 6.436C14.544 6.18 14.46 5.972 14.292 5.812C14.132 5.644 13.888 5.56 13.56 5.56H11V12C11 12.4 10.575 12.4 10.575 12.4H9.31395C9.22868 12.4 9.15504 12.372 9.09302 12.316C9.03876 12.252 9.01163 12.18 9.01163 12.1V7.6L7.7093 10.108C7.67054 10.18 7.62015 10.244 7.55814 10.3C7.49612 10.356 7.41085 10.384 7.30233 10.384H6.69767C6.58915 10.384 6.50388 10.356 6.44186 10.3C6.37984 10.244 6.32946 10.18 6.2907 10.108L4.97674 7.6V12.1C4.97674 12.18 4.94961 12.252 4.89535 12.316C4.84108 12.372 4.77132 12.4 4.68605 12.4H3.2907Z" />
</svg>